<svg id="Layer_1" data-name="Layer 1" xmlns="http://www.w3.org/2000/svg" xmlns:xlink="http://www.w3.org/1999/xlink" viewBox="0 0 369.55 56.85"><defs><style>.cls-1,.cls-2{fill:none;}.cls-1{clip-rule:evenodd;}.cls-3{clip-path:url(#clip-path);}.cls-4{fill:#ddd;}.cls-5{clip-path:url(#clip-path-2);}.cls-6{clip-path:url(#clip-path-3);}.cls-7{clip-path:url(#clip-path-4);}.cls-8{clip-path:url(#clip-path-5);}.cls-9{clip-path:url(#clip-path-6);}.cls-10{clip-path:url(#clip-path-7);}.cls-11{clip-path:url(#clip-path-8);}.cls-12{clip-path:url(#clip-path-9);}.cls-13{clip-path:url(#clip-path-10);}</style><clipPath id="clip-path" transform="translate(-236 -269.13)"><path class="cls-1" d="M405.43,295.47l-8.24,12.84a2,2,0,0,1-1.5.83h-2.94a2,2,0,0,1-1.5-.83L383,295.47v19.34a1,1,0,0,1-1,1h-4.8a1,1,0,0,1-1-1V280.29a1,1,0,0,1,1-1h3a1.47,1.47,0,0,1,1.11.63l12.79,21h.26l12.78-21a1.49,1.49,0,0,1,1.12-.63h3a1,1,0,0,1,1,1v34.52a1,1,0,0,1-1,1h-4.8a1,1,0,0,1-1-1Z"/></clipPath><clipPath id="clip-path-2" transform="translate(-236 -269.13)"><path class="cls-1" d="M336.4,314.45l16.22-35.09a.92.92,0,0,1,.88-.58H354a.88.88,0,0,1,.89.58L371,314.45a.92.92,0,0,1-.88,1.36h-4.54a1.5,1.5,0,0,1-1.51-1.05l-2.56-5.63H345.89l-2.56,5.63a1.57,1.57,0,0,1-1.51,1.05h-4.53A.92.92,0,0,1,336.4,314.45Zm22.53-11.11-5.22-11.47h-.16l-5.11,11.47Z"/></clipPath><clipPath id="clip-path-3" transform="translate(-236 -269.13)"><path class="cls-1" d="M421.08,280.29a1,1,0,0,1,1-1H434c6.2,0,11,4.17,11,9.65,0,4-3.28,7.15-5.73,8.29,2.76.89,6.77,3.7,6.77,8.5,0,5.84-5,10.07-11.37,10.07H422.07a1,1,0,0,1-1-1Zm12.3,14.35a4.48,4.48,0,0,0,4.49-4.7,4.26,4.26,0,0,0-4.49-4.43H427.8v9.13Zm.73,15a4.65,4.65,0,0,0,4.7-4.74c0-2.61-2.61-4.54-5.32-4.54H427.8v9.28Z"/></clipPath><clipPath id="clip-path-4" transform="translate(-236 -269.13)"><path class="cls-1" d="M452.54,280.29a1,1,0,0,1,1-1h14.92a11.3,11.3,0,0,1,11.36,11.22c0,4.79-3.18,8.7-7.71,10.53l7.14,13.24a1,1,0,0,1-.89,1.52h-5.47a.93.93,0,0,1-.84-.47l-6.93-13.82h-5.79v13.29a1,1,0,0,1-1,1h-4.8a1,1,0,0,1-1-1Zm15.33,15.65a5.31,5.31,0,0,0,5.16-5.32,5.19,5.19,0,0,0-5.16-5.06h-8.5v10.38Z"/></clipPath><clipPath id="clip-path-5" transform="translate(-236 -269.13)"><rect class="cls-2" x="486.87" y="279.3" width="6.83" height="36.5" rx="0.99" ry="0.99"/></clipPath><clipPath id="clip-path-6" transform="translate(-236 -269.13)"><path class="cls-1" d="M502.32,280.29a1,1,0,0,1,.94-1h12.36a18.26,18.26,0,1,1,0,36.51H503.26a1,1,0,0,1-.94-1ZM515,309.44c6.78,0,11.73-5.11,11.73-11.94A11.5,11.5,0,0,0,515,285.61h-5.94v23.83Z"/></clipPath><clipPath id="clip-path-7" transform="translate(-236 -269.13)"><path class="cls-1" d="M577.34,280.29a1,1,0,0,1,1-1h21.23a1,1,0,0,1,1,1v4.28a1,1,0,0,1-1,1H584.12v8.55H597a1,1,0,0,1,1,1v4.33a1,1,0,0,1-1,1H584.12v9.13h15.44a1,1,0,0,1,1,1v4.27a1,1,0,0,1-1,1H578.33a1,1,0,0,1-1-1Z"/></clipPath><clipPath id="clip-path-8" transform="translate(-236 -269.13)"><path class="cls-1" d="M333.12,310.22l-.29-.73h0l-.64-1.57-.94-2.35a.68.68,0,0,0-1.25-.19,11.6,11.6,0,0,1-1.5,1.44l0,0q-.44.33-.9.63c-.2.13-.4.26-.61.38a12,12,0,0,1-6.06,1.66,11.81,11.81,0,0,1-11.68-12.05c0-6.57,4.95-12.15,11.63-12.15a11.53,11.53,0,0,1,1.77.15h.11a12,12,0,0,1,5.84,2.69l1,.8a.73.73,0,0,0,1.3-.25l1.73-4.27a1.67,1.67,0,0,0-.52-1.86l-.54-.38h0l-.29-.19-.53-.37-.06,0a17.4,17.4,0,0,0-9.93-2.81,18.78,18.78,0,1,0,0,37.55,17.89,17.89,0,0,0,11.22-3.84c.31-.23.66-.5,1-.81a1.31,1.31,0,0,0,.19-1.46"/></clipPath><clipPath id="clip-path-9" transform="translate(-236 -269.13)"><path class="cls-1" d="M569.13,297.71h-10a1,1,0,0,0-1,1v4.12a1,1,0,0,0,1,.94h4.18v4.43a16.3,16.3,0,0,1-6.21,1.31,12,12,0,0,1-.05-24,11.53,11.53,0,0,1,5.63,1.49l.67.41c.38.25.76.51,1.12.8l.19.14a10,10,0,0,1,.77.71.69.69,0,0,0,1.27-.22l1.8-4.43a1.59,1.59,0,0,0-.56-1.84l-.32-.23a21,21,0,0,0-3-1.72l-.3-.14-.15-.07a18.72,18.72,0,1,0-7.42,35.91,26.35,26.35,0,0,0,12.94-3.39,1,1,0,0,0,.41-.83V298.7a1,1,0,0,0-.94-1"/></clipPath><clipPath id="clip-path-10" transform="translate(-236 -269.13)"><path class="cls-1" d="M264.43,274.13a23.43,23.43,0,1,0,23.43,23.43,23.43,23.43,0,0,0-23.43-23.43m-.08,43.26a9.28,9.28,0,1,1,9.28-9.28,9.28,9.28,0,0,1-9.28,9.28"/></clipPath></defs><title>cambridge-audio</title><g class="cls-3"><rect class="cls-4" x="135.23" y="5.17" width="45.98" height="46.5"/></g><g class="cls-5"><rect class="cls-4" x="95.29" y="4.65" width="44.78" height="47.02"/></g><g class="cls-6"><rect class="cls-4" x="180.08" y="5.17" width="34.98" height="46.5"/></g><g class="cls-7"><rect class="cls-4" x="211.54" y="5.17" width="37.27" height="46.5"/></g><g class="cls-8"><rect class="cls-4" x="245.87" y="5.17" width="16.83" height="46.5"/></g><g class="cls-9"><rect class="cls-4" x="261.32" y="5.17" width="41.6" height="46.5"/></g><g class="cls-10"><rect class="cls-4" x="336.34" y="5.17" width="33.2" height="46.5"/></g><g class="cls-11"><rect class="cls-4" x="60.87" y="4.65" width="41.38" height="47.55"/></g><g class="cls-12"><rect class="cls-4" x="297" y="4.65" width="42.07" height="47.49"/></g><g class="cls-13"><rect class="cls-4" width="56.85" height="56.85"/></g></svg>