<?xml version="1.0" encoding="utf-8"?>
<!-- Generator: Adobe Illustrator 22.1.0, SVG Export Plug-In . SVG Version: 6.00 Build 0)  -->
<svg version="1.1" id="Layer_1" xmlns="http://www.w3.org/2000/svg" xmlns:xlink="http://www.w3.org/1999/xlink" x="0px" y="0px"
	 viewBox="0 0 2535.5 595.3" style="enable-background:new 0 0 2535.5 595.3;" xml:space="preserve">
<style type="text/css">
	.st0{fill-rule:evenodd;clip-rule:evenodd;fill:#DCDCDC;}
</style>
<g>
	<path class="st0" d="M121.8,274.6H186c0-38.9-28.1-78.6-93.2-78.6C28.6,196-3,242.8-3,297.6c0,58.3,37.8,99.8,100.2,99.8
		c59.8,0,88.8-38,88.8-78.6h-63.3c-2.6,13.2-8.8,27.4-26.4,27.4c-18.5,0-32.5-14.1-32.5-50.3c0-35.3,16.7-46.8,32.5-46.8
		C113,249,120,263.1,121.8,274.6L121.8,274.6z"/>
	<path class="st0" d="M355.6,393V257.8h54.5v11.5c9.7-10.6,23.7-18.5,43.1-18.5c18.5,0,37.8,8.8,43.9,21.2
		c7.9-11.5,25.5-20.3,44.8-20.3c22.9,0,36.9,10.6,43.9,21.2c7-10.6,24.6-22.1,43.1-22.1c23.7,0,36,9.7,45.7,22.1
		c13.2-18.5,31.6-22.1,42.2-22.1c41.3,0,51.9,27.4,51.9,57.4c0,30.9,0,84.8,0,84.8h-58.9v-75.1c0-13.2-4.4-18.5-14.1-18.5
		c-9.7,0-15.8,8.8-15.8,19.4c0,11.5,0,74.2,0,74.2h-59.8v-75.1c0-13.2-3.5-18.5-13.2-18.5c-9.7,0-15.8,8.8-15.8,19.4
		c0,11.5,0,74.2,0,74.2h-58.9v-75.1c0-13.2-4.4-18.5-14.1-18.5c-8.8,0-14.9,8.8-14.9,19.4c0,11.5,0,74.2,0,74.2h-58.9v-75.1
		c0-13.2-4.4-18.5-14.1-18.5c-9.7,0-15.8,8.8-15.8,19.4c0,11.5,0,74.2,0,74.2H355.6L355.6,393z"/>
	<path class="st0" d="M1088.6,296.7c0,10.6,0,96.3,0,96.3h-58.9v-75.1c0-13.2-5.3-18.5-14.9-18.5c-9.7,0-15.8,8.8-15.8,19.4
		c0,11.5,0,74.2,0,74.2h-58.9V257.8h54.5v11.5c9.7-10.6,28.1-18.5,43.1-18.5C1057,249.9,1088.6,261.4,1088.6,296.7L1088.6,296.7z"/>
	<path class="st0" d="M1223.9,393.8c-2.6-9.7-7-22.1-11.4-37.1c-3.5-11.5-6.1-21.2-6.1-26.5c0,5.3-1.8,15-5.3,26.5
		c-4.4,13.2-7.9,27.4-11.4,36.2h-61.5l-41.3-136h63.3c2.6,8.8,5.3,21.2,9.7,33.6c2.6,10.6,4.4,19.4,4.4,24.7
		c0-5.3,2.6-14.1,5.3-24.7c4.4-13.2,7.9-24.7,10.5-33.6l0,0h53.6c2.6,8.8,6.2,20.3,9.7,33.6c2.6,10.6,5.3,19.4,5.3,24.7
		c0-5.3,2.6-14.1,5.3-24.7c3.5-12.4,7-24.7,9.7-33.6h62.4l-40.4,136L1223.9,393.8L1223.9,393.8z"/>
	<polygon class="st0" points="1644.1,200.4 1703,200.4 1703,393 1644.1,393 1644.1,200.4 	"/>
	<path class="st0" d="M1811.9,350.6v38.9c-2.6,1.8-14.9,7.1-34.3,7.1c-38.7,0-49.2-19.4-49.2-55.6v-48.6h-17.6v-38h17.6v-53.9h58.9
		v53.9h23.7v38h-23.7v38c0,11.5,3.5,15,7.9,19.4C1798.8,354.1,1808.4,352.3,1811.9,350.6L1811.9,350.6z"/>
	<path class="st0" d="M1973.7,291.4c0,11.5,0,101.6,0,101.6h-58.9v-75.1c0-13.2-6.2-18.5-14.9-18.5c-9.7,0-15.8,8.8-15.8,19.4
		c0,11.5,0,74.2,0,74.2h-60.6l-0.9-191.6h57.1v67.1c7.9-10.6,28.1-19.4,43.1-19.4C1951.7,249,1973.7,268.4,1973.7,291.4
		L1973.7,291.4z"/>
	<polygon class="st0" points="2467.6,311.7 2442.1,336.4 2442.1,393 2429.8,393 2429.8,197.8 2442.1,197.8 2442.1,323.2 
		2515.9,252.5 2530,252.5 2477.3,303.8 2536.2,393 2523,393 2467.6,311.7 	"/>
	<path class="st0" d="M2369.2,262.3c-22.8,0-43.1,18.5-43.1,41.5V393h-12.3V253.4h12.3v23.8c5.3-8.8,19.3-26.5,44.8-26.5
		c36.9,0,47.5,27.4,47.5,49.5V393h-12.3v-86.5C2406.1,270.2,2387.6,262.3,2369.2,262.3L2369.2,262.3z"/>
	<path class="st0" d="M2113.4,201.3c34.3,0,56.3,19.4,55.4,46.8c0,23.8-14.1,37.1-27.2,43.3c11.4,4.4,36.9,15,36.9,48.6
		c-0.9,38.9-29.9,53-58,53h-81.7V201.3H2113.4L2113.4,201.3z M2110.8,287c17.6,0,45.7-6.2,44.8-37.1c0-30-22.9-37.1-40.4-36.2H2051
		V287H2110.8L2110.8,287z M2051,380.6h67.7c32.5,0,45.7-16.8,45.7-40.6c0-23.8-19.3-40.6-42.2-40.6H2051V380.6L2051,380.6z"/>
	<path class="st0" d="M2308.5,384.1v7.9c-4.4,2.6-9.7,2.6-12.3,2.6c-4.4,0-15.8-2.6-15.8-24.7c-13.2,18.5-30.8,26.5-51.9,26.5
		c-22,0-43.1-10.6-43.1-40.6c0-29.1,23.7-36.2,33.4-38c9.7-1.8,33.4-5.3,39.5-6.2c6.2-1.8,22-1.8,22-15.9c0-3.5,0-7.1,0-12.4
		c0-10.6-7.9-24.7-38.7-24.7c-34.3,0-40.4,29.1-40.4,31.8h-9.7c0-16.8,12.3-41.5,48.3-41.5c51,0,52.7,27.4,52.7,44.2v79.5
		C2292.7,382.4,2298,386.8,2308.5,384.1L2308.5,384.1z M2279.5,340.9V317l-48.3,7.9c-13.2,2.7-33.4,7.9-33.4,31.8
		c0,23.8,18.5,29.1,34.3,29.1C2255.8,385.9,2279.5,370,2279.5,340.9L2279.5,340.9z"/>
	<path class="st0" d="M267.7,248.1c56.3,0,82.6,35.3,82.6,75.1c0,52.1-40.4,74.2-80,74.2c-50.1,0-78.2-31.8-78.2-71.5
		C192.1,287.9,213.2,248.1,267.7,248.1L267.7,248.1z M270.3,359.4c15.8,0,18.5-21.2,18.5-35.3c0-13.2-2.6-34.4-18.5-34.4
		c-15.8,0-17.6,21.2-17.6,34.4C252.8,338.2,254.5,359.4,270.3,359.4L270.3,359.4z"/>
	<path class="st0" d="M851.3,248.1c56.3,0,82.6,35.3,82.6,75.1c0,52.1-40.4,74.2-80,74.2c-50.1,0-78.2-31.8-78.2-71.5
		C775.7,287.9,796.8,248.1,851.3,248.1L851.3,248.1z M853.9,359.4c15.8,0,17.6-21.2,17.6-35.3c0-13.2-1.8-34.4-17.6-34.4
		s-18.5,21.2-18.5,34.4C835.5,338.2,838.1,359.4,853.9,359.4L853.9,359.4z"/>
	<path class="st0" d="M1379.5,338.2c0,11.5,7.9,20.3,18.5,20.3c7,0,14.9-2.7,17.6-7.9h56.3c-12.3,31.8-43.9,46.8-76.5,46.8
		c-49.2,0-78.2-31.8-78.2-71.5c0-38,21.1-77.7,76.5-77.7c56.3,0,81.7,35.3,81.7,75.1c0,6.2,0,9.7-0.9,15H1379.5L1379.5,338.2z
		 M1413.8,302.9c-1.8-8.8-7.9-16.8-16.7-16.8c-10.5,0-15.8,7.1-16.7,16.8H1413.8L1413.8,302.9z"/>
	<path class="st0" d="M1579,393l-4.4-9.7c-8.8,9.7-32.5,15.9-43.1,15.9c-9.7,0-52.7-3.5-52.7-44.2c0-45.9,59.8-47.7,72.1-49.5
		c11.4-1.8,20.2-5.3,20.2-12.4c0-6.2-4.4-11.5-12.3-11.5c-10.5,0-16.7,8.8-16.7,17.7h-54.5c0-33.6,28.1-53,69.4-53
		c67.7,0,74.7,23,74.7,60.1c0,0,0,34.4,0,44.2c0,10.6,0,23,1.8,31.8l3.5,10.6H1579L1579,393z M1547.4,342.6c-7,3.5-7.9,7.9-4.4,13.2
		c3.5,5.3,13.2,6.2,22,0c7.9-6.2,6.1-16.8,6.1-21.2C1560.6,338.2,1553.5,340,1547.4,342.6L1547.4,342.6z"/>
</g>
</svg>
