<svg id="Layer_1" data-name="Layer 1" xmlns="http://www.w3.org/2000/svg" viewBox="0 0 283.06 107.51"><defs><style>.cls-1{fill:#dcdcdc;}</style></defs><title>ebay_logo</title><path class="cls-1" d="M198.86,365.49c-18.93,0-34.7,8-34.7,32.25,0,19.19,10.61,31.28,35.18,31.28,28.94,0,30.79-19.06,30.79-19.06h-14s-3,10.26-17.62,10.26c-11.9,0-20.47-8-20.47-19.31H231.6v-7.08C231.6,382.68,224.52,365.49,198.86,365.49Zm-.49,9c11.33,0,19.06,6.94,19.06,17.35h-39.1C178.33,380.83,188.41,374.53,198.37,374.53Z" transform="translate(-164.16 -342.03)"/><path class="cls-1" d="M231.59,342v74.82c0,4.25-.31,10.21-.31,10.21h13.37s.48-4.28.48-8.19c0,0,6.61,10.33,24.57,10.33,18.92,0,31.77-13.13,31.77-31.95,0-17.5-11.81-31.58-31.73-31.58-18.67,0-24.47,10.08-24.47,10.08V342Zm34.69,32.9c12.85,0,21,9.53,21,22.32,0,13.72-9.43,22.7-20.92,22.7-13.71,0-21.11-10.71-21.11-22.57C245.27,386.32,251.91,374.93,266.28,374.93Z" transform="translate(-164.16 -342.03)"/><path class="cls-1" d="M334.7,365.49c-28.47,0-30.3,15.59-30.3,18.08h14.17s.74-9.1,15.15-9.1c9.36,0,16.61,4.28,16.61,12.52v2.93H333.72c-22.06,0-33.72,6.46-33.72,19.55,0,12.88,10.78,19.9,25.34,19.9,19.84,0,26.24-11,26.24-11,0,4.36.33,8.66.33,8.66h12.6s-.49-5.32-.49-8.73V388.87c0-19.32-15.58-23.38-29.32-23.38Zm15.63,33.23v3.91c0,5.1-3.14,17.77-21.66,17.77-10.15,0-14.49-5.06-14.49-10.93C314.18,398.79,328.82,398.72,350.33,398.72Z" transform="translate(-164.16 -342.03)"/><path class="cls-1" d="M356.39,367.94h15.94l22.89,45.83L418,367.94h14.44L390.9,449.55H375.75l12-22.75-31.36-58.86Z" transform="translate(-164.16 -342.03)"/><path class="cls-1" d="M437.78,359.22v1.42H439v.93h-1.19v2.19c0,.6.16.92.64.92a1.5,1.5,0,0,0,.49-.07l0,1a2.8,2.8,0,0,1-.91.12,1.45,1.45,0,0,1-1.08-.41,2,2,0,0,1-.38-1.38v-2.33h-.71v-.93h.71v-1.12Zm2.13,2.89c0-.57,0-1.05,0-1.47H441l.05.73h0a1.72,1.72,0,0,1,1.53-.84,1.42,1.42,0,0,1,1.37.91h0a1.9,1.9,0,0,1,.61-.62,1.67,1.67,0,0,1,1-.29c.82,0,1.66.56,1.66,2.14v2.92H446v-2.74c0-.82-.29-1.31-.89-1.31a1,1,0,0,0-.87.66,1.48,1.48,0,0,0-.07.42v3H443v-2.87c0-.69-.27-1.18-.85-1.18a1,1,0,0,0-.89.72,1.06,1.06,0,0,0-.08.4v2.93h-1.22v-3.48Z" transform="translate(-164.16 -342.03)"/></svg>