<?xml version="1.0" encoding="utf-8"?>
<!-- Generator: Adobe Illustrator 22.1.0, SVG Export Plug-In . SVG Version: 6.00 Build 0)  -->
<svg version="1.1" id="Layer_1" xmlns="http://www.w3.org/2000/svg" xmlns:xlink="http://www.w3.org/1999/xlink" x="0px" y="0px"
	 viewBox="0 0 400 400" style="enable-background:new 0 0 400 400;" xml:space="preserve">
<style type="text/css">
	.st0{fill:#FFFFFF;}
</style>
<g>
	<path class="st0" d="M308.4,200c0,41.7-18.5,62.3-47.7,62.3c-15.2,0-25.6-5.4-30.7-15.2c-8.9,10.1-20.6,16.1-37.9,16.1
		c-33.7,0-56.9-25-56.9-62.9c0-38.2,23.3-63.2,56.9-63.2c17,0,28.9,6.3,34.9,13.7v-9.2h31.6V228c0,8.1,3.6,11.6,10.4,11.6
		c10.4,0,18.5-12.5,18.5-39.7c0-49.8-37.3-87.7-87.7-87.7c-50.7,0-87.4,37.9-87.4,87.7c0,53.4,40.3,87.4,85.6,87.4
		c23.3,0,39.1-4.8,53.4-13.1l6.9,19.4c-16.4,9.2-33.4,13.7-60.2,13.7c-59,0-106.4-43.5-106.4-107.3c0-61.7,45-107.3,108.2-107.3
		C262.8,92.7,308.4,138.3,308.4,200z M225.5,197.6c0-19.7-11.3-31-28-31c-17,0-28.3,11.9-28.3,33.7c0,21.5,11.3,33.7,28.3,33.7
		c16.7,0,28-11.6,28-31.3V197.6z"/>
</g>
</svg>
