<?xml version="1.0" encoding="utf-8"?>
<!-- Generator: Adobe Illustrator 22.1.0, SVG Export Plug-In . SVG Version: 6.00 Build 0)  -->
<svg version="1.1" id="Layer_1" xmlns="http://www.w3.org/2000/svg" xmlns:xlink="http://www.w3.org/1999/xlink" x="0px" y="0px"
	 viewBox="0 0 400 400" style="enable-background:new 0 0 400 400;" xml:space="preserve">
<style type="text/css">
	.st0{fill:#FFFFFF;}
</style>
<path class="st0" d="M200,73.7c-71.6,0-129.5,57.9-129.5,129.5c0,57.3,37.2,105.8,88.6,122.9c6.5,1.2,8.9-2.8,8.9-6.2
	c0-3-0.1-11.2-0.1-22.1c-36,7.8-43.6-17.3-43.6-17.3c-6-14.9-14.4-18.9-14.4-18.9c-11.8-8.1,0.9-7.9,0.9-7.9
	c13,0.9,19.8,13.4,19.8,13.4c11.5,19.8,30.3,14,37.7,10.7c1.2-8.3,4.5-14,8.2-17.3c-28.7-3.3-59-14.4-59-64c0-14.2,5-25.7,13.4-34.8
	c-1.3-3.3-5.8-16.4,1.3-34.3c0,0,10.8-3.4,35.6,13.2c10.3-2.9,21.4-4.4,32.4-4.4c11,0,22.1,1.5,32.4,4.4
	c24.7-16.8,35.6-13.2,35.6-13.2c7,17.9,2.6,31,1.3,34.3c8.3,9,13.4,20.6,13.4,34.8c0,49.7-30.3,60.7-59.1,63.9
	c4.6,4,8.7,11.9,8.7,23.9c0,17.3-0.1,31.3-0.1,35.6c0,3.4,2.4,7.5,8.9,6.2c51.5-17.2,88.5-65.7,88.5-122.9
	C329.5,131.6,271.5,73.7,200,73.7z"/>
</svg>
