<svg id="Layer_1" data-name="Layer 1" xmlns="http://www.w3.org/2000/svg" viewBox="0 0 147.03 17.27"><defs><style>.cls-1{fill:#dcdcdc;}</style></defs><title>Laterooms-logo</title><path class="cls-1" d="M245.31,205.66H245a1.12,1.12,0,0,1-.75-.22,1,1,0,0,1-.24-.76v-.58a5,5,0,0,0-.57-2.61,2.51,2.51,0,0,0-2.1-1.09v-.05a2.89,2.89,0,0,0,2.12-1.25,4.89,4.89,0,0,0,.66-2.69,6.21,6.21,0,0,0-.24-1.77,3.61,3.61,0,0,0-.78-1.41,3.66,3.66,0,0,0-1.4-.91,5.82,5.82,0,0,0-2.08-.33h-5.12v0h0L232,192l.32,5.53.14,5.49-.05,5.72,4.75-.16-.47-6.61h1.61a1.78,1.78,0,0,1,.66.11.88.88,0,0,1,.44.37,1.65,1.65,0,0,1,.24.73,7.35,7.35,0,0,1,.07,1.15v1.11a12.16,12.16,0,0,0,.21,1.68,1.89,1.89,0,0,0,.62,1,2.09,2.09,0,0,0,1.08.4,12.38,12.38,0,0,0,1.62.09c.35,0,.75,0,1.13,0a11.31,11.31,0,0,0,1.27-.1Zm-5.94-7a1.83,1.83,0,0,1-1.51.61h-1.1l-.08-4.2,1.15-.13a2.07,2.07,0,0,1,1.55.49,2.34,2.34,0,0,1,.47,1.65A2.46,2.46,0,0,1,239.37,198.61Z" transform="translate(-191.5 -191.84)"/><path class="cls-1" d="M295,204.26v4.56h4.33l-.51-4.34Zm8.8-4.78a1.13,1.13,0,0,1,.39-.62,1.47,1.47,0,0,1,.74-.18.94.94,0,0,1,.93.54,2.9,2.9,0,0,1,.21.77,8.33,8.33,0,0,1,.07,1.23h3.72a10,10,0,0,0-.22-2.13,4.14,4.14,0,0,0-.76-1.64,3.51,3.51,0,0,0-1.45-1.06,5.84,5.84,0,0,0-2.28-.38,10,10,0,0,0-2.19.23,3.62,3.62,0,0,0-1.76.95,4.77,4.77,0,0,0-1.18,2.05,11.82,11.82,0,0,0-.44,3.56,11.14,11.14,0,0,0,.39,3.27,4.43,4.43,0,0,0,1.09,1.92,3.34,3.34,0,0,0,1.69.89,10.5,10.5,0,0,0,2.19.21,5.07,5.07,0,0,0,3.81-1.24,4.06,4.06,0,0,0,.86-1.71,7.25,7.25,0,0,0,.25-2l-3.72-.47v.81a3,3,0,0,1-.31,1.62,1,1,0,0,1-.9.44,1.58,1.58,0,0,1-.74-.17,1.21,1.21,0,0,1-.39-.62,8.15,8.15,0,0,1-.1-1.19c0-.5-.06-1.14-.06-1.91s0-1.41.06-1.91A8.6,8.6,0,0,1,303.82,199.48Zm17.27.56a5.42,5.42,0,0,0-.68-2.09,3.62,3.62,0,0,0-1.59-1.42,6.58,6.58,0,0,0-2.89-.52,6,6,0,0,0-2.79.56,4.1,4.1,0,0,0-1.61,1.5,5.64,5.64,0,0,0-.73,2.09,16.18,16.18,0,0,0-.17,2.41,20.63,20.63,0,0,0,.15,2.56,5.27,5.27,0,0,0,.68,2.08,3.57,3.57,0,0,0,1.59,1.39,7.11,7.11,0,0,0,2.88.49,6.16,6.16,0,0,0,2.81-.54,4,4,0,0,0,1.6-1.46,5.41,5.41,0,0,0,.73-2.09,17.42,17.42,0,0,0,.17-2.41A20.46,20.46,0,0,0,321.09,200Zm-4.72,6.43-.42,0a.92.92,0,0,1-1-.87l-.31-5.92a.91.91,0,0,1,.87-1l.42,0a.93.93,0,0,1,1,.88l.31,5.92A.91.91,0,0,1,316.37,206.47Z" transform="translate(-191.5 -191.84)"/><path class="cls-1" d="M338.28,197.74a2.6,2.6,0,0,0-.69-1,2.39,2.39,0,0,0-1-.54,5.08,5.08,0,0,0-1.27-.15,3.94,3.94,0,0,0-1.8.42,2.94,2.94,0,0,0-1.32,1.5,3.1,3.1,0,0,0-1.07-1.45,3.4,3.4,0,0,0-1.95-.47,3,3,0,0,0-3,1.84h-.38l.31-1.54h-4v12.2l4.59.47-.47-8.4a2.12,2.12,0,0,1,.23-1.13.87.87,0,0,1,.79-.35.85.85,0,0,1,.78.35,2.12,2.12,0,0,1,.23,1.13v8.09h4.13v-8.08a2.82,2.82,0,0,1,0-.42v-.26a.82.82,0,0,1,.81-.82h.38a.82.82,0,0,1,.82.82l0,.4a2.53,2.53,0,0,1,0,.28l-.12,2.21-.29,5.88,4.54.31V199.4A4.55,4.55,0,0,0,338.28,197.74Z" transform="translate(-191.5 -191.84)"/><path class="cls-1" d="M282.87,197.38a2.6,2.6,0,0,0-.69-1,2.53,2.53,0,0,0-1-.55,5.08,5.08,0,0,0-1.27-.15,4,4,0,0,0-1.8.43,2.92,2.92,0,0,0-1.32,1.49,3.12,3.12,0,0,0-1.07-1.44,3.33,3.33,0,0,0-2-.48,3,3,0,0,0-3,1.85h-.22l.15-1.55h-4v12.52h4.59l-.47-8.24a2.19,2.19,0,0,1,.23-1.14,1.08,1.08,0,0,1,1.57,0,2.19,2.19,0,0,1,.23,1.14v8.24L277,208v-7.77a2.75,2.75,0,0,1,0-.42v-.26a.82.82,0,0,1,.81-.83h.38a.83.83,0,0,1,.82.83l0,.4a2.53,2.53,0,0,1,0,.28l-.13,2.2-.28,6,4.54,0V199A4.55,4.55,0,0,0,282.87,197.38Z" transform="translate(-191.5 -191.84)"/><path class="cls-1" d="M195.78,205.32l.47-13.48-4.75.47v16.51h10.11l-.46-3.91Zm17.47.75a1.14,1.14,0,0,1-.75-.22,1,1,0,0,1-.24-.75l0-5.07h0a4.84,4.84,0,0,0-.35-2,2.86,2.86,0,0,0-1-1.22,4,4,0,0,0-1.57-.63,11.22,11.22,0,0,0-2-.17,8.79,8.79,0,0,0-1.54.15,4.39,4.39,0,0,0-1.55.6,3.9,3.9,0,0,0-1.2,1.28,2.67,2.67,0,0,0-.48,1.72l3.6.47a2.4,2.4,0,0,1,.3-1.36,1.09,1.09,0,0,1,.88-.34c.71,0,1.07.39,1.07,1.16a1.27,1.27,0,0,1-.28.89,1.8,1.8,0,0,1-.95.48l-1.64.39a7.44,7.44,0,0,0-1.66.57,3.25,3.25,0,0,0-1.07.81,3,3,0,0,0-.57,1.12,6.21,6.21,0,0,0-.17,1.53,5.26,5.26,0,0,0,.19,1.48,2.92,2.92,0,0,0,.6,1.16,2.49,2.49,0,0,0,1.07.73,4.75,4.75,0,0,0,1.61.24,3.52,3.52,0,0,0,1.73-.42,2.46,2.46,0,0,0,1.09-1.26h.21v0a1.93,1.93,0,0,0,.62,1,2.22,2.22,0,0,0,1.08.4,10.86,10.86,0,0,0,1.41.08c.34,0,.75,0,1.13,0s.48,0,.88,0l-.18-2.82Zm-4.75-1.95a3.43,3.43,0,0,1-.33,1.7,1.19,1.19,0,0,1-1.11.56,1,1,0,0,1-.81-.41,1.72,1.72,0,0,1-.31-1.09,2.48,2.48,0,0,1,.21-1.1,1.45,1.45,0,0,1,.74-.67,3.63,3.63,0,0,1,.93-.29c.28,0,.68-.08.68.2v1.1ZM219.38,206a1.12,1.12,0,0,1-.75-.21,1,1,0,0,1-.24-.76v-6h1.48l.77-3.1-2.68.41.43-4.23-4.13.47v4.14l-1.38.13v.61h0v1.57h1.38v6.67a5.83,5.83,0,0,0,.2,1.68,1.79,1.79,0,0,0,.62,1,2.1,2.1,0,0,0,1.08.41,14.62,14.62,0,0,0,1.61.08c.35,0,.76,0,1.14,0s1.18,0,1.58-.09L220,206Zm4.53-1.7v-1.06h6.62V202a11.37,11.37,0,0,0-.31-2.85,4.68,4.68,0,0,0-.94-1.85,3.51,3.51,0,0,0-1.57-1,7.07,7.07,0,0,0-2.17-.3,7.48,7.48,0,0,0-2.41.35,3.6,3.6,0,0,0-1.63,1.15,4.85,4.85,0,0,0-.95,2,13.29,13.29,0,0,0-.3,3.06,14.5,14.5,0,0,0,.27,3,4.92,4.92,0,0,0,.88,2,3.44,3.44,0,0,0,1.64,1.1,8.1,8.1,0,0,0,2.5.33,4.92,4.92,0,0,0,3.7-1.17,3.82,3.82,0,0,0,1.18-3l-3.71-.47a3.23,3.23,0,0,1-.32,1.72l0,0a1.25,1.25,0,0,1-.23.23.05.05,0,0,1,0,0,1.16,1.16,0,0,1-.64.2H225a1,1,0,0,1-1.06-.92v-1.36Zm.21-4.87a1.08,1.08,0,0,1,1.14-1l.49,0a1.09,1.09,0,0,1,1,1.14l-.08,1.49H224Z" transform="translate(-191.5 -191.84)"/><path class="cls-1" d="M265.68,199.72a5.26,5.26,0,0,0-.68-2.09,3.59,3.59,0,0,0-1.59-1.43,6.74,6.74,0,0,0-2.88-.52,6,6,0,0,0-2.8.57,4,4,0,0,0-1.61,1.49,5.27,5.27,0,0,0-.39.79,4.59,4.59,0,0,0-.41-.9,3.56,3.56,0,0,0-1.6-1.43,6.68,6.68,0,0,0-2.88-.52,6,6,0,0,0-2.79.57,4,4,0,0,0-1.61,1.49,5.76,5.76,0,0,0-.73,2.1,17.41,17.41,0,0,0-.18,2.41,20.56,20.56,0,0,0,.16,2.56,5.06,5.06,0,0,0,.68,2.07,3.51,3.51,0,0,0,1.59,1.39,6.93,6.93,0,0,0,2.88.5,6.18,6.18,0,0,0,2.81-.55,4,4,0,0,0,1.6-1.45,4.78,4.78,0,0,0,.38-.79,4.37,4.37,0,0,0,.42.9,3.46,3.46,0,0,0,1.59,1.39,6.91,6.91,0,0,0,2.89.5,6.16,6.16,0,0,0,2.8-.55,3.9,3.9,0,0,0,1.6-1.45,5.29,5.29,0,0,0,.72-2.1,14.66,14.66,0,0,0,.18-2.4A20.35,20.35,0,0,0,265.68,199.72Zm-14.45,6.42-.42,0a.93.93,0,0,1-1-.88l-.31-5.92a.93.93,0,0,1,.88-1l.42,0a.93.93,0,0,1,1,.88l.3,5.92A.92.92,0,0,1,251.23,206.14Zm10.26-.85a.92.92,0,0,1-1,.88l-.42,0a.93.93,0,0,1-.88-1l.31-5.92a.92.92,0,0,1,1-.87l.42,0a.91.91,0,0,1,.87,1Z" transform="translate(-191.5 -191.84)"/><path class="cls-1" d="M293.41,202.71a3.43,3.43,0,0,0-1.12-1.15,5.44,5.44,0,0,0-1.45-.66c-.51-.15-1-.3-1.45-.45a4.63,4.63,0,0,1-1.11-.47.94.94,0,0,1-.15-1.51,1.11,1.11,0,0,1,.77-.26,1.14,1.14,0,0,1,.84.29,1.55,1.55,0,0,1,.3,1.11l3.56-.17c0-2.61-1.56-3.76-4.68-3.76a7.18,7.18,0,0,0-2.2.3,4.4,4.4,0,0,0-1.55.83,3.41,3.41,0,0,0-.91,1.24,3.9,3.9,0,0,0-.3,1.53,3.58,3.58,0,0,0,.45,1.91,3.7,3.7,0,0,0,1.12,1.17,6.23,6.23,0,0,0,1.45.69l1.45.48a5.32,5.32,0,0,1,1.12.54,1,1,0,0,1,.45.85,1,1,0,0,1-.36.79,1.36,1.36,0,0,1-.84.27,1,1,0,0,1-.88-.44,1.13,1.13,0,0,1-.23-.53,3,3,0,0,1-.08-.69h0v-.1l-3.64-.43v.7h0a3.64,3.64,0,0,0,1.14,2.94,5.51,5.51,0,0,0,3.75,1,7.19,7.19,0,0,0,2.11-.28,4.26,4.26,0,0,0,1.58-.84,3.71,3.71,0,0,0,1-1.32,3.86,3.86,0,0,0,.35-1.68A3.67,3.67,0,0,0,293.41,202.71Z" transform="translate(-191.5 -191.84)"/></svg>