<?xml version="1.0" encoding="utf-8"?>
<!-- Generator: Adobe Illustrator 22.1.0, SVG Export Plug-In . SVG Version: 6.00 Build 0)  -->
<svg version="1.1" id="Layer_1" xmlns="http://www.w3.org/2000/svg" xmlns:xlink="http://www.w3.org/1999/xlink" x="0px" y="0px"
	 viewBox="0 0 400 400" style="enable-background:new 0 0 400 400;" xml:space="preserve">
<style type="text/css">
	.st0{fill:#FFFFFF;}
</style>
<g>
	<g>
		<g>
			<path class="st0" d="M145.2,297.3h-40.4V167.4h40.4V297.3z M125,149.6c-13,0-23.4-10.5-23.4-23.4c0-12.9,10.4-23.4,23.4-23.4
				c12.9,0,23.4,10.5,23.4,23.4C148.4,139.2,137.9,149.6,125,149.6z M296.3,297.3H256v-63.2c0-15.1-0.3-34.4-21-34.4
				c-21,0-24.2,16.4-24.2,33.3v64.2h-40.3V167.4h38.7v17.7h0.6c5.4-10.2,18.6-21,38.2-21c40.8,0,48.4,26.9,48.4,61.9V297.3z"/>
		</g>
	</g>
</g>
<g>
	<g>
		<g>
			<path class="st0" d="M741.4,78.5H532.6c-10,0-18.1,7.9-18.1,17.7v209.7c0,9.8,8.1,17.7,18.1,17.7h208.8c10,0,18.1-7.9,18.1-17.7
				V96.2C759.6,86.4,751.4,78.5,741.4,78.5z M587.2,287.3h-36.4V170.4h36.4V287.3z M569.1,154.4c-11.7,0-21.1-9.4-21.1-21.1
				c0-11.6,9.4-21.1,21.1-21.1c11.6,0,21.1,9.4,21.1,21.1C590.1,144.9,580.7,154.4,569.1,154.4z M723.3,287.3H687v-56.8
				c0-13.6-0.3-31-18.9-31c-18.9,0-21.8,14.8-21.8,30v57.8H610V170.4h34.8v16h0.5c4.8-9.2,16.7-18.9,34.4-18.9
				c36.8,0,43.6,24.2,43.6,55.7V287.3z"/>
		</g>
	</g>
</g>
</svg>
